<?xml version="1.0" encoding="UTF-8"?>
<svg id="Camada_1" xmlns="http://www.w3.org/2000/svg" version="1.1" viewBox="0 0 1000 1000">
  <!-- Generator: Adobe Illustrator 29.2.1, SVG Export Plug-In . SVG Version: 2.1.0 Build 116)  -->
  <defs>
    <style>
      .st0 {
        fill: #f70707;
      }

      .st1 {
        fill: #fff;
      }
    </style>
  </defs>
  <path class="st1" d="M936.4,684.5c-5.4,38.5-15.9,75.3-31.3,109.5-17.3,38.3-40.2,72.6-68.3,101.8-31.5,32.8-68.6,58.4-110.2,76.1-42.7,18.1-89,27.3-137.5,27.3h-.7c-34.5,0-59.9-4.7-80.2-9.8-28.5,4.6-56.4,7-83,7-61.2,0-117.5-12.3-167.3-36.5-39-18.9-73.3-44.8-102-76.8-42.5-47.4-71.3-106.4-85.7-175.5-11.6-55.4-13.7-117.7-6.3-185,2.2-20.1,7.5-51.7,20.2-88.2,12.6-36.3,29.4-68.1,49.8-94.4,18.4-23.8,40.3-44.8,65.1-62.4,21.9-15.6,46.1-28.5,72-38.5,12.5-4.8,25.5-9,38.8-12.5,11.5-28.1,26.6-54.7,45-79.1C423.5,55.6,534.6.8,651.7.8s6.3,0,9.1.1c50.3,1.1,98.2,21.6,134.8,57.9,16.8,16.6,31,36.3,42.3,58.7,10.2,20.1,27.3,61.2,27.1,109.9-.2,41.5-13,80.7-36.5,113.1,26.7,27,49.2,58.4,67,93.5,38.4,75.5,52.9,164.5,40.8,250.6Z"/>
  <path d="M898,679.1c-4.9,34.8-14.4,68.1-28.3,99-15.4,34.3-35.9,64.8-60.9,90.9-27.9,29-60.7,51.7-97.4,67.3-37.9,16.1-79.1,24.2-122.4,24.2h-.6c-37.5,0-62.7-6.4-78.5-10.7,0,0-.1,0-.2,0-29.2,5.2-57.7,7.8-84.6,7.8-55.3,0-105.9-11-150.4-32.6-34.5-16.7-64.8-39.5-90.1-67.8-37.8-42.2-63.6-95.3-76.7-157.6-10.8-51.4-12.7-109.6-5.7-172.8,2-18.1,6.8-46.7,18.3-79.7,11.2-32.3,26-60.4,43.8-83.4,16.1-20.8,35.3-39.2,56.9-54.6,19.3-13.7,40.6-25.1,63.5-33.9,17.2-6.7,35.2-11.8,53.8-15.5,10.9-32,26.6-61.9,47-89,61.6-82.1,161.1-131.1,266.1-131.1s5.5,0,8.2,0c40.4.8,78.9,17.4,108.5,46.7,13.8,13.7,25.6,30.1,35,48.7,8.6,17,23.1,51.6,22.9,92.1-.2,41.1-15.7,79.3-43.7,107.7-2.8,2.9-5.8,5.6-8.8,8.2,3.4,2.8,6.8,5.6,10.1,8.5,31.5,27.5,57.4,61.1,77.1,99.9,34.8,68.5,48,149.3,37,227.6Z"/>
  <path class="st1" d="M859.6,673.7c-2.2,15.6-5.4,30.8-9.6,45.6-4.2,14.8-9.4,29.1-15.6,42.9-13.6,30.2-31.6,57.1-53.5,79.9-24.3,25.2-52.7,44.9-84.6,58.4-33.1,14.1-69.2,21.2-107.3,21.2h-.5c-34.8,0-56.8-6.1-71.3-10.1h-.5c-1.1-.5-2.8-.9-4-1.2-1.4,0-4.5.4-9.8,1.3-26.9,4.8-53.1,7.2-77.8,7.2-110.1,0-175.8-47.6-211.6-87.4-33.2-37.1-56-84.1-67.6-139.7-9.9-47.4-11.6-101.5-5.2-160.7,4.6-41.5,21.2-101.1,54.2-143.7,13.8-17.8,30.2-33.5,48.8-46.7,16.6-11.8,35.1-21.7,55-29.4,22-8.5,45.5-14.3,70.1-17.2,9.3-36.6,25.3-70.3,47.8-100.2,54.4-72.4,142.2-115.7,235.1-115.7s4.9,0,7.4,0c30.4.6,59.6,13.2,82.1,35.5,10.9,10.8,20.2,23.8,27.8,38.7,5.7,11.2,18.9,40.8,18.7,74.4-.1,30.9-11.7,59.5-32.5,80.7-16.3,16.6-37.1,27.4-60,31.5,22.9,10.8,44.1,24.7,63.4,41.6,27.7,24.3,50.7,54,68.1,88.3,31.3,61.4,43,134.1,33.1,204.7Z"/>
  <path class="st1" d="M499.5,452.6c-.1,0-.3.1-.4.2.3-.2.3-.2.4-.2Z"/>
  <g>
    <path class="st0" d="M623.5,425.7c-31.1-8.6-63.4-6-94.6,7.2h0s-21.8,8.6-44.4,26.5c-2.5,2-4.8,4.1-7.1,6.3-12,11.6-41.4,29-31.8,42.7,9.2,9.5,42.7,11.9,52.2,2.7,1.2-1.1,2.3-2.2,3.5-3.3,55.8-50.2,144-30.5,177.1,36.9,42.9,87.6,15.6,202.6-71.5,220.7-13.7,2.9-28,1-40.9-4.5-17.9-7.7-61.6-23-104.2-10.5-14.7,4.3-55.6,7.6-70.1,2.5-127.7-45.1-147.7-325.4,74.4-290.2,2.5.4,5.1.3,7.1-1.2,8.6-6.5,31.2-27.1,45.7-31.8-46.3-37.3-180.3-54-239.8,22.9-17.5,22.6-29.4,61.7-32.5,90.1-20.5,186.4,56.1,296.3,237.7,264,56.1-10,55.7,8.3,104.3,8.4,211.2.4,223.5-335.4,34.8-389.5Z"/>
    <path d="M656.8,184.9c-112.4-3-227.8,94.1-179.6,259.9,1.5,5.1,7.6,7.2,12,4.1,9.8-7,19.9-12.5,27.3-16.2,3.4-1.7,5-5.5,4-9.1-39.3-134.3,44.9-201.1,136.2-191,13.1,0,24.4,7,24.4-6.1,0-13.2-11.1-41.6-24.3-41.6Z"/>
    <path d="M473.5,542.8c8.6,9.3,11.1,27.7,2.1,36.7l-8.8,8.8,6.2,6.2c9,9,12.8,21.1,4.2,30.4-8.4,9.1-25.3,13.2-34.9,6-1.7-1.2-2.7-3.1-3-5.2l-1.1-8.7-6.1,6.1c-9,9-18.2,7.5-30.4,4.2-7.3-2-13.2-10.3-6-19.9.4-.5.9-1,1.4-1.4,4.4-3.4,9-6.6,13-10.4l8.8-8.5-15.1-8.3c-1.6-.9,10.7-13.5,3.2-18.5-1.1-.8-11.7,13.6-12.5,12.5-7.1-9.6-8.2-18.8.8-27.3,9.3-8.6,27.7-11.1,36.7-2.1l8.5,18.5,1.6-13.5c.3-2.1,1.4-4,3.1-5.3,9.6-7.1,20.1-9.2,28.5-.2Z"/>
    <path d="M434.4,695.4c0-13.2,3.4-39,19.8-39,25.8,3.7,52,3.7,77.9,0,16.5-.3,22.4,23.3,22.4,36.5,0,9.9-3.3,11.3-11.8,11.3-5.9,0-11.8-.5-17.7-1.6-22.7-4.2-46-3.9-68.5,1l-2.3.5c-16.4,0-19.8,4.5-19.8-8.7Z"/>
    <path d="M587.3,542.4c8.6,9.3,11.1,27.7,2.1,36.7l-8.8,8.8,12.4,12.4c4.2,4.2,5.3,10.6,2.7,15.9-12,24.9-28.7,22.5-39.7,14.3-1.7-1.2-2.7-3.1-3-5.2l-1.1-8.7-11,11c-8.4,8.4-21.8,8.1-29.8-.7-5.4-6.1-8.5-10.8-1.7-20,.4-.5.9-1,1.4-1.4,4.4-3.4,9-6.6,13-10.4l8.8-8.5-13.1-8.8c-1.6-.9,7.5-15,1.2-18-1.2-.6-13.1,11.7-13.7,10.5-2.5-5-7.1-16.7,2-25.2,9.3-8.6,27.7-11.1,36.7-2.1l8.5,18.5,1.6-13.5c.3-2.1,1.4-4,3.1-5.3,9.6-7.1,20.1-9.2,28.5-.2Z"/>
  </g>
</svg>