<?xml version="1.0" encoding="UTF-8"?>
<svg id="Camada_1" xmlns="http://www.w3.org/2000/svg" version="1.1" viewBox="0 0 1000 1000">
  <!-- Generator: Adobe Illustrator 29.2.1, SVG Export Plug-In . SVG Version: 2.1.0 Build 116)  -->
  <defs>
    <style>
      .st0 {
        fill: #f70707;
      }
    </style>
  </defs>
  <path class="st0" d="M799.9,827.9H81.9V283c0-17,13.8-30.8,30.8-30.8h17.3v-19c0-11.8,9.6-21.4,21.4-21.4h86.5c11.8,0,21.4,9.6,21.4,21.4v19h519.8c17,0,30.8,13.8,30.8,30.8v61.9h-20v-61.9c0-6-4.8-10.8-10.8-10.8H239.3v-39c0-.8-.6-1.4-1.4-1.4h-86.5c-.8,0-1.4.6-1.4,1.4v39h-37.3c-5.9,0-10.8,4.8-10.8,10.8v524.9h698v20Z"/>
  <path class="st0" d="M806.7,827.9H77.2l179-455.4c6.9-17.6,23.6-29,42.6-29h631.2c15.1,0,29.3,7.5,37.8,20s10.3,28.4,4.8,42.5l-165.9,421.9ZM106.6,807.9h686.5l160.9-409.3c3.2-8.1,2.2-16.8-2.7-23.9-4.9-7.1-12.6-11.2-21.3-11.2H298.8c-10.7,0-20.1,6.4-24,16.3l-168.3,428.1Z"/>
</svg>