<?xml version="1.0" encoding="UTF-8"?>
<svg id="Camada_1" xmlns="http://www.w3.org/2000/svg" version="1.1" viewBox="0 0 100 100">
  <!-- Generator: Adobe Illustrator 30.2.1, SVG Export Plug-In . SVG Version: 2.1.1 Build 1)  -->
  <defs>
    <style>
      .st0 {
        fill: #e5211d;
      }
    </style>
  </defs>
  <path class="st0" d="M45.02,35.14c.1.68.23,1.35.35,2.04-.15-.68-.26-1.35-.36-2.03h0s.01-.01.01-.01Z"/>
  <path class="st0" d="M45.02,35.14c.1.68.23,1.35.35,2.04-.15-.68-.26-1.35-.36-2.03h0s.01-.01.01-.01Z"/>
  <path class="st0" d="M69.72,38.2c-4.98-1.36-10.11-.95-15.09,1.15,0,0-.06.02-.18.08-.43-.29-.86-.5-1.26-.68.13-.26.15-.56.06-.86-6.26-21.31,7.16-31.89,21.73-30.3,2.1,0,3.89,1.13,3.91-.96.01-2.1-1.78-6.6-3.88-6.61-16.49-.44-33.4,12.57-30,35.12h.01c.1.68.23,1.35.35,2.04-.15-.68-.26-1.35-.36-2.03h0c-9.57-2.59-23.18-1.72-30.24,7.34-2.79,3.58-4.7,9.78-5.2,14.29-3.27,29.58,8.97,47.01,37.94,41.9,8.95-1.58,8.88,1.31,16.65,1.33,33.7.06,35.65-53.21,5.56-61.8ZM81.49,61.93c-.74,4.5-4.32,8.52-5.99,8-2.53-.78,1.87-11.04-3.43-17.81-5.1-6.52-15.77-5.43-15.68-7.19.06-1.13,4.58-2.47,9-1.82,8.79,1.28,17.46,10.44,16.09,18.81Z"/>
</svg>