<?xml version="1.0" encoding="UTF-8"?>
<svg id="Camada_1" xmlns="http://www.w3.org/2000/svg" version="1.1" viewBox="0 0 1000 1000">
  <!-- Generator: Adobe Illustrator 29.2.1, SVG Export Plug-In . SVG Version: 2.1.0 Build 116)  -->
  <defs>
    <style>
      .st0 {
        fill: #f70707;
      }
    </style>
  </defs>
  <path class="st0" d="M677.2,382.1c-49.4-13.7-100.5-9.5-150.1,11.5h.1s-34.6,13.6-70.4,42c-3.9,3.1-7.7,6.4-11.3,9.9-19,18.5-65.7,46-50.4,67.8,14.6,15,67.7,18.8,82.7,4.3,1.8-1.8,3.7-3.5,5.6-5.2,88.5-79.7,228.5-48.4,280.9,58.5,68.1,138.9,24.8,321.4-113.3,350.1-21.8,4.5-44.4,1.6-64.8-7.1-28.4-12.2-97.8-36.5-165.3-16.7-23.3,6.9-88.2,12.1-111.2,4-202.5-71.5-234.3-516.2,118-460.4,4,.6,8,.5,11.2-1.9,13.6-10.3,49.5-42.9,72.5-50.5-73.4-59.1-286-85.6-380.4,36.3-27.8,35.9-46.7,97.8-51.6,142.9-32.5,295.7,89,470,377,418.9,89-15.8,88.3,13.2,165.5,13.4,335,.6,354.5-532.1,55.3-617.9Z"/>
  <path d="M730,.1c-178.3-4.8-361.3,149.3-284.8,412.3,2.4,8.2,12.1,11.5,19,6.5,15.6-11.1,31.6-19.8,43.3-25.6,5.4-2.7,8-8.8,6.3-14.5-62.3-213.1,71.2-319,216-303,20.8,0,38.6,11.2,38.7-9.7,0-20.9-17.7-65.9-38.6-66Z"/>
  <path d="M439.2,568c13.7,14.7,17.6,44,3.4,58.2l-14,14,9.8,9.8c14.2,14.2,20.3,33.5,6.6,48.2-13.4,14.4-40.2,20.9-55.3,9.6-2.6-2-4.3-5-4.7-8.2l-1.8-13.8-9.7,9.7c-14.2,14.2-28.8,11.8-48.2,6.6-11.5-3.1-20.9-16.4-9.5-31.5.6-.9,1.4-1.6,2.3-2.3,7-5.4,14.2-10.4,20.6-16.5l13.9-13.4-23.9-13.2c-2.6-1.4,16.9-21.4,5-29.3s-18.5,21.6-19.9,19.9c-11.3-15.2-13.1-29.8,1.3-43.3,14.7-13.7,44-17.6,58.2-3.4l13.4,29.3,2.6-21.4c.4-3.3,2.1-6.4,4.9-8.4,15.2-11.3,31.8-14.6,45.2-.3Z"/>
  <path d="M377.2,810c0-20.9,5.5-61.9,31.5-61.9,41,5.8,82.6,5.9,123.5,0,26.2-.5,35.6,36.9,35.6,57.9,0,15.7-5.2,17.9-18.8,18-9.4,0-18.8-.8-28-2.6-35.9-6.7-72.9-6.1-108.7,1.6l-3.6.8c-26,0-31.5,7.1-31.5-13.8Z"/>
  <path d="M619.8,567.3c13.7,14.7,17.6,44,3.4,58.2l-14,14,19.7,19.7c6.6,6.6,8.4,16.7,4.3,25.2-19,39.5-45.6,35.7-63,22.7-2.6-2-4.3-5-4.7-8.2l-1.8-13.8-17.5,17.5c-13.3,13.3-34.7,12.9-47.2-1.2-8.6-9.6-13.6-17.2-2.6-31.7.6-.8,1.4-1.6,2.2-2.2,7-5.4,14.2-10.4,20.6-16.5l13.9-13.4-20.8-14c-2.6-1.4,11.9-23.8,1.9-28.5-2-.9-20.8,18.6-21.7,16.6-4-7.9-11.2-26.6,3.2-40,14.7-13.7,44-17.6,58.2-3.4l13.4,29.3,2.6-21.4c.4-3.3,2.1-6.4,4.9-8.4,15.2-11.3,31.8-14.6,45.2-.3Z"/>
</svg>