<svg xmlns="http://www.w3.org/2000/svg" version="1.1" xmlns:xlink="http://www.w3.org/1999/xlink" width="1000" height="1000"><g clip-path="url(#SvgjsClipPath1124)"><rect width="1000" height="1000" fill="#f7f7f7"></rect><g transform="matrix(1,0,0,1,0,0)"><svg xmlns="http://www.w3.org/2000/svg" version="1.1" xmlns:xlink="http://www.w3.org/1999/xlink" width="1000" height="1000"><svg id="Camada_1" xmlns="http://www.w3.org/2000/svg" version="1.1" viewBox="0 0 1000 1000">
  <!-- Generator: Adobe Illustrator 30.2.1, SVG Export Plug-In . SVG Version: 2.1.1 Build 1)  -->
  <defs>
    <style>
      .st0 {
        fill: #fff;
      }

      .st1 {
        fill: #e4201e;
      }
    </style>
  <clipPath id="SvgjsClipPath1124"><rect width="1000" height="1000" x="0" y="0" rx="500" ry="500"></rect></clipPath></defs>
  <path class="st0" d="M943.04,679.96c-4.82,38.57-14.84,75.6-29.74,110.03-16.71,38.61-39.19,73.22-66.85,102.87-31.08,33.3-67.79,59.45-109.16,77.74-42.49,18.77-88.66,28.64-137.22,29.35h-.66c-34.53.46-59.97-3.83-80.38-8.66-28.5,5.06-56.38,7.82-82.99,8.21-61.21.89-117.71-10.56-167.93-34.03-39.32-18.38-74.02-43.72-103.18-75.32-43.17-46.78-72.9-105.45-88.35-174.38-12.41-55.28-15.45-117.52-9.04-185.01,1.92-20.16,6.75-51.87,18.9-88.54,12.1-36.55,28.4-68.58,48.42-95.23,18.09-24.1,39.7-45.43,64.23-63.42,21.67-15.9,45.7-29.23,71.44-39.6,12.47-5.03,25.42-9.39,38.69-13.05,11.13-28.34,25.83-55.11,43.83-79.84C420.66,58.22,530.98,1.75,648.17.04c3.19-.05,6.26-.05,9.14-.03,50.38.34,98.6,20.22,135.74,55.99,17.02,16.36,31.57,35.91,43.22,58.08,10.53,20,28.25,60.84,28.72,109.54.41,41.5-11.82,80.95-34.88,113.67,27.12,26.66,50.08,57.7,68.45,92.54,39.54,74.98,55.34,163.81,44.48,250.12Z"></path>
  <path d="M904.58,675.14c-4.37,34.91-13.41,68.38-26.86,99.47-14.93,34.53-34.99,65.41-59.61,91.81-27.49,29.46-59.95,52.58-96.48,68.74-37.7,16.65-78.79,25.42-122.13,26.05h-.59c-37.49.49-62.8-5.45-78.71-9.55-.06.01-.13.03-.19.04-29.14,5.61-57.58,8.66-84.54,9.06-55.32.81-106.09-9.42-150.94-30.39-34.73-16.24-65.38-38.61-91.11-66.49-38.48-41.7-65.07-94.39-79.01-156.58-11.52-51.3-14.3-109.46-8.27-172.85,1.73-18.19,6.11-46.82,17.11-80.02,10.78-32.53,25.11-60.84,42.62-84.14,15.82-21.07,34.73-39.72,56.17-55.44,19.09-14.01,40.3-25.75,63.01-34.9,17.12-6.91,35.07-12.35,53.65-16.29,10.41-32.22,25.73-62.29,45.71-89.73,60.47-83.07,159.29-133.58,264.35-135.11,2.75-.04,5.52-.05,8.25-.02,40.43.25,79.2,16.29,109.2,45.17,14.03,13.49,26.07,29.72,35.78,48.2,8.89,16.9,23.87,51.3,24.26,91.87.41,41.1-14.57,79.58-42.15,108.37-2.8,2.92-5.69,5.71-8.69,8.37,3.46,2.7,6.86,5.48,10.23,8.34,31.9,27.09,58.37,60.34,78.66,98.82,35.86,68,50.18,148.7,40.31,227.23Z"></path>
  <path class="st0" d="M866.12,670.31c-1.96,15.64-4.96,30.94-8.96,45.79-4.01,14.86-9.02,29.26-15.01,43.11-13.17,30.45-30.79,57.62-52.37,80.76-23.9,25.61-52.09,45.7-83.8,59.71-32.92,14.54-68.93,22.2-107.04,22.76h-.5c-34.79.46-56.88-5.29-71.49-9.09l-.54-.14c-1.15-.3-2.85-.74-4.01-1.02-1.39.1-4.49.42-9.74,1.43-26.9,5.18-53.06,8-77.76,8.36-110.18,1.61-176.64-45.01-213-84.41-33.81-36.62-57.24-83.31-69.68-138.77-10.62-47.32-13.14-101.38-7.5-160.69,3.97-41.61,19.74-101.44,52.13-144.56,13.55-18.02,29.73-34,48.11-47.47,16.48-12.09,34.84-22.26,54.57-30.2,21.86-8.81,45.33-14.93,69.86-18.22,8.73-36.75,24.31-70.68,46.34-100.93,53.33-73.26,140.65-117.81,233.58-119.17,2.46-.04,4.94-.04,7.37-.02,30.43.16,59.79,12.36,82.64,34.34,11.03,10.61,20.57,23.5,28.35,38.32,5.84,11.1,19.47,40.56,19.8,74.19.31,30.9-10.84,59.74-31.39,81.18-16.11,16.83-36.77,27.96-59.56,32.4,23.07,10.48,44.49,24.08,64.02,40.68,28.11,23.87,51.48,53.27,69.46,87.36,32.2,61.03,45.02,133.59,36.14,204.31Z"></path>
  <path class="st0" d="M502.52,454.3c-.14.06-.28.11-.42.16.32-.17.26-.23.42-.16Z"></path>
  <g>
    <path class="st1" d="M626.21,425.61c-31.29-8.18-63.51-5.07-94.56,8.63l.07.02s-21.7,8.86-44.03,27.15c-2.45,2-4.77,4.14-7.01,6.37-11.83,11.82-41.01,29.64-31.17,43.23,9.33,9.33,42.9,11.26,52.22,1.93,1.14-1.14,2.3-2.26,3.47-3.34,55.1-51.06,143.67-32.62,177.71,34.34,44.21,86.99,18.62,202.53-68.27,221.92-13.69,3.06-27.99,1.44-40.96-3.9-18.05-7.44-62.02-22.15-104.41-9.01-14.65,4.54-55.55,8.42-70.09,3.53-128.39-43.22-152.53-323.44,70.2-291.5,2.52.36,5.07.24,7.07-1.33,8.46-6.64,30.82-27.53,45.24-32.5-46.86-36.63-181.18-51.36-239.61,26.42-17.19,22.89-28.53,62.15-31.24,90.64-17.78,186.82,60.46,295.64,241.67,260.74,55.99-10.78,55.82,7.53,104.53,6.9,211.3-2.73,218.69-338.93,29.17-390.26Z"></path>
    <path d="M655.95,184.13c-112.5-1.37-226.56,97.53-175.87,262.72,1.57,5.12,7.74,7.12,12.06,3.95,9.73-7.13,19.78-12.8,27.08-16.56,3.35-1.72,4.95-5.61,3.84-9.21-41.25-133.85,41.96-201.85,133.48-193.13,13.13-.2,24.47,6.68,24.34-6.47-.13-13.19-11.74-41.43-24.93-41.3Z"></path>
    <path d="M477.78,545.02c8.78,9.15,11.49,27.57,2.66,36.66l-8.69,8.95,6.25,6.07c9.11,8.85,13.11,20.94,4.61,30.35-8.32,9.21-25.15,13.56-34.82,6.55-1.68-1.22-2.76-3.1-3.07-5.15l-1.26-8.7-6.02,6.2c-8.85,9.11-18.06,7.74-30.35,4.61-7.29-1.86-13.34-10.12-6.31-19.81.4-.55.87-1.05,1.4-1.47,4.36-3.45,8.88-6.71,12.82-10.63l8.66-8.6-15.19-8.1c-1.62-.86,10.49-13.66,2.9-18.56-1.16-.75-11.49,13.82-12.34,12.71-7.28-9.48-8.52-18.7.42-27.3,9.15-8.78,27.57-11.49,36.66-2.66l8.73,18.35,1.41-13.54c.22-2.11,1.29-4.06,2.98-5.35,9.46-7.24,19.95-9.52,28.53-.6Z"></path>
    <path d="M440.91,698.26c-.19-13.19,2.88-39.09,19.28-39.33,25.9,3.31,52.13,2.93,77.93-1.11,16.53-.56,22.8,22.96,22.98,36.17.14,9.89-3.12,11.31-11.67,11.5-5.93.13-11.86-.36-17.71-1.36-22.74-3.88-46.04-3.2-68.56,2.03l-2.27.53c-16.39.24-19.78,4.75-19.97-8.44Z"></path>
    <path d="M591.68,542.92c8.78,9.15,11.49,27.57,2.66,36.66l-8.69,8.95,12.6,12.24c4.24,4.12,5.45,10.48,2.96,15.84-11.63,25.06-28.43,22.94-39.52,14.89-1.68-1.22-2.76-3.1-3.07-5.15l-1.26-8.7-10.87,11.19c-8.28,8.53-21.74,8.44-29.81-.29-5.54-6-8.71-10.72-1.95-19.98.38-.52.84-.99,1.35-1.39,4.36-3.45,8.88-6.71,12.82-10.63l8.66-8.6-13.22-8.66c-1.62-.86,7.29-15.14.93-17.99-1.26-.56-12.92,11.9-13.56,10.66-2.58-4.97-7.3-16.65,1.64-25.25,9.15-8.78,27.57-11.49,36.66-2.66l8.73,18.35,1.41-13.54c.22-2.11,1.29-4.06,2.98-5.35,9.46-7.24,19.95-9.52,28.53-.6Z"></path>
  </g>
</svg></svg></g></g></svg>