<svg xmlns="http://www.w3.org/2000/svg" viewBox="1010 195 145 170"><path d="M1084.37,231.35c-11.17,10.03-20.09,20.52-28.46,32.35-9.45,13.36-13.85,33.5-5.29,46.67,18.04,27.75,59.92,25.2,71.65,10.77,6.17-7.6,8.4-17.88,8.36-27.93l-2.85-23.57c-.31-2.53.28-5.33,2.17-6.48,1.43-.87,5.53-.55,6.18,1.45,6.16,18.92,6.05,38.8-.98,57-3.41,8.81-9.74,13.88-18.55,16.23-20.31,5.42-41.73,4.35-59.96-7.09-13.28-8.33-22.05-23.85-21.87-39.55.14-12.26,6.13-22.08,11.99-32.24l35.83-40.61c2.16-.39,4.31-.17,6.08.68,10.03,13.44,18.78,26.37,26.74,40.92,6.23,12.95,8.5,27.02,4.14,40.8-3.21,10.13-11.27,17.62-21.91,19.4-7.16,1.2-14.73-1.15-21.07-3.05-2.05,1.61-5.23,2.94-7.05,2.55-3.01-.64-3.29-4.39-2.8-7.46l8.68-54.63c.39-2.16,7.66-2.07,7.76.06l2.14,45.54c.16,3.44,4.09,8.99,7.68,8.12,12.13-2.95,18.81-13.95,19.39-25.76-.58-7.97-2.6-15.02-6.06-21.92-6.35-11.19-12.75-20.94-21.96-32.25Z"/></svg>
