<svg xmlns="http://www.w3.org/2000/svg" version="1.1" id="Camada_1" viewBox="0 0 1000 1000" width="1000" height="1000"><defs>
    <style>
      .st0 {
        fill: #f7f7f7;
        stroke: #000;
        stroke-miterlimit: 10;
        stroke-width: 20px;
      }
    </style>
  </defs><path class="st0" d="M409.72,181.64c38.14,40.75,49.06,121.96,9.68,161.48l-38.72,38.92,27.19,27.07c39.6,39.43,56.56,92.88,18.62,133.81-37.11,40.09-111.42,58.32-153.57,26.9-7.34-5.44-11.94-13.77-13.21-22.83l-5.05-38.33-26.82,26.95c-39.43,39.6-79.88,33.05-133.81,18.62-31.97-8.57-58.17-45.27-26.7-87.54,1.8-2.42,3.88-4.55,6.24-6.39,19.38-14.94,39.45-29.02,57.03-46.07l38.57-37.41-66.41-36.46c-7.08-3.88,46.92-59.53,13.8-81.52-5.05-3.36-51.31,60.15-55.02,55.22-31.5-42.1-36.47-82.76,3.37-120.11,40.75-38.14,121.96-49.07,161.48-9.68l37.4,81.23,6.96-59.49c1.1-9.3,5.91-17.79,13.4-23.38,42.02-31.34,88.35-40.79,125.58-1.07v.08Z"></path><path class="st0" d="M239.03,853.97c-.13-58.06,14.81-171.84,86.97-172.01,113.8,15.96,229.27,15.77,342.98-.59,72.76-1.59,99.05,102.28,99.14,160.47.1,43.56-14.35,49.6-51.99,50-26.11.28-52.18-2.26-77.88-6.96-99.82-18.33-202.45-16.61-301.79,5.15l-10.01,2.2c-72.16.17-87.29,19.84-87.42-38.22v-.04Z"></path><path class="st0" d="M911.03,178.63c38.14,40.75,49.07,121.96,9.68,161.48l-38.72,38.92,54.78,54.56c18.43,18.34,23.38,46.46,12.14,69.88-52.54,109.65-126.36,99.37-174.72,63.34-7.34-5.44-11.94-13.77-13.21-22.83l-5.05-38.33-48.45,48.63c-36.89,37.07-96.16,35.95-131.15-2.9-24.05-26.69-37.74-47.65-7.49-88.02,1.67-2.26,3.75-4.31,5.99-6.02,19.38-14.94,39.45-29.02,57.03-46.07l38.57-37.41-57.71-38.84c-7.08-3.88,32.95-66.23,5.1-79.14-5.51-2.55-57.49,51.66-60.3,46.18-11.06-22.01-31.2-73.68,8.64-111.03,40.75-38.14,121.96-49.07,161.48-9.68l37.4,81.23,6.96-59.49c1.1-9.3,5.91-17.79,13.4-23.38,42.02-31.34,88.35-40.79,125.58-1.07h.04Z"></path></svg>