<?xml version="1.0" encoding="UTF-8"?>
<svg id="Camada_1" xmlns="http://www.w3.org/2000/svg" version="1.1" viewBox="0 0 800 300">
  <!-- Generator: Adobe Illustrator 30.2.1, SVG Export Plug-In . SVG Version: 2.1.1 Build 1)  -->
  <defs>
    <style>
      .st0 {
        fill: #f70707;
      }

      .st1 {
        fill: #fff;
      }
    </style>
  </defs>
  <path class="st0" d="M675.9,113.4c-11.9-3.3-24.1-2.3-36,2.8h0s-8.3,3.3-16.9,10.1c-8.6,6.8-1.8,1.5-2.7,2.4-4.6,4.4-15.8,11-12.1,16.3,3.5,3.6,16.3,4.5,19.9,1,.4-.4.9-.8,1.3-1.3,21.2-19.1,54.8-11.6,67.4,14.1s6,77.2-27.2,84c-5.2,1.1-10.7.4-15.6-1.7s-23.5-8.8-39.7-4-21.2,2.9-26.7,1c-48.6-17.2-56.2-123.9,28.3-110.5,1,.2,1.9.1,2.7-.5,3.3-2.5,11.9-10.3,17.4-12.1-17.6-14.2-68.6-20.5-91.3,8.7-6.7,8.6-11.2,23.5-12.4,34.3-7.8,71,21.4,112.8,90.5,100.5,21.4-3.8,21.2,3.2,39.7,3.2,80.4.1,85.1-127.7,13.3-148.3h.1Z"/>
  <path class="st1" d="M688.5,21.7c-42.8-1.1-86.7,35.8-68.4,99,.6,2,2.9,2.8,4.6,1.6,3.7-2.7,7.6-4.8,10.4-6.1,1.3-.6,1.9-2.1,1.5-3.5-14.9-51.2,17.1-76.6,51.9-72.7,5,0,9.3,2.7,9.3-2.3s-4.2-15.8-9.3-15.9v-.1Z"/>
  <g>
    <path class="st1" d="M598.8,260.2c-27.7,3.7-82.6-10.2-43.9-17.6,3.7-.7,6.4-4.2,5.9-8-.6-4.3-3.8-9.1-15-9.7-33.2,0-21.4-173-62-124.1,7.5,27,15.3,104.3-4.9,124.1,0,0-7.7,4.2-10.1,9.7-7.3-8.6-16.3-18-26.7-27.6,87.1-15.8,30.2-88.7-32.1-98.5-18.6-33.4-31.8-7.5-23.9,2.4-20.4,8.3-39.5,19.4-73.8-3.5,19.6-10.4,3.3-9.5-8.1-14.7-5.8-2.7-11.2.8-16.6,4.3-31.4,23.5-73.6.5-44.1,37.6,12.5,22.4,26.8,87.2,14.4,96.7-16.3,12.5-29.5-10.5-29.5-24.8s-7.6-6.7-13.3-6.7-8.5-.7-10-1.1c-11-3.2-3.6,16.6,1.4,26.3-8.3,1.2-32.5,4.7-51.4,7.2,4.1-39.8,10.5-29.6,29.5-35,6.9-1.9,9-10.8,3.7-15.6-12.2-12.5-31.2-.6-33.9-13-8.2-43.3,26.1-5.4,75.7-30.6,6.1-3.1-1.1-17.7-8.2-17.4-48.3,3.6-63.5,13.5-84.8-17.8-7-26.2-38,6.6-23.3,20.6,6.2,6,10.2,14,11.8,22.5,3.1,15.8,7,35.7-1.9,41.3-4.4,3-12.6,23.9,7.3,21.3.6,10.7,1.1,20.5,1.4,28.2C16.2,305.3,27.7,94.2,77.6,99.5c3.4.4,6.5,2,9.1,4.3,4.6,4.1,15.1,6.4,15.9-1.1.1-.8-4.3,1.4-4.8,0s4.4-7.8,2.9-8.6c-7.6-3.8-6.7-3.8-5.7-5.7s8.6,3.2,8.3,2.6c-1.3-3.5-3.7-6.5-6.8-8.7C11.8,27.7-13.7,219.6,48,266c43.2,42.4,110.5-41.9,181.6-14.6,119.8,38.2-4.8-170.1,61.6-117.2-.5,12.1,17.1,45.2,3.9,54.6-7.9,5.5-9.1,18.9,8,21.1,6.6,46.7-2,14.7-14.9,41.5-3,25.5,59.5-14.8,85.4-5.9,4.4.4-8,15.7-6.1,17.3,24.4,14.7,45.7-25.5,49.1-48.7,31.6,25.3,63.9,96.2,79.3,34.2,29.6-3.8,19.6-5.7,33.7,16.4,14.5,20.1,55.3,12.4,84.7,10.4,26.9-1.8,32.2,8.1,36.4-1.3.1-.3-1.9,2.4-3.8-.5s3.7-6.7,1.9-7.6c-7.6-3.8-5-5.2-4.8-5.7,1-1.9,7.5,3,6.9,1.7-8.3-14.6-34.9-2.5-52-1.5h-.1ZM398.9,203.8c-.2,4-1.9,14.1-8.7,23.5-17.3-9.8-37.1,4.6-62.8,6.1-1.2-44.3,7.4-24.3,30.8-41.7,10.4-11.8-10.7-20.8-31-14.7-1.1-12-3.2-23-5.8-32.7,32.2,19.2,81.7-26.7,79.4,37.7-12.4-7.7-34.8,11.2-1.9,21.9v-.1ZM418.7,189.4c.9-15.4.8-37.5-1.5-53.4,56.9,8.7,56.2,64.4,1.5,53.4ZM502.6,223.4c2.4-8.9,4.8-18.3,7-27.2,1.2,15.8,13.3,30.9-7,27.2Z"/>
    <path class="st1" d="M366.6,119c-.1,0-.3.1-.4.2q.3-.2.4-.2Z"/>
    <path class="st1" d="M353.4,125.1c7-2.5,11.6-5.2,12.8-5.9-4.8,1.8-9.1,3.8-12.8,5.9Z"/>
  </g>
  <path class="st1" d="M618.7,158.1c3.3,3.5,4.2,10.6.8,14l-3.4,3.4,2.3,2.3c3.4,3.4,4.9,8,1.6,11.6-3.2,3.5-9.6,5-13.3,2.3-.6-.5-1-1.2-1.1-2l-.4-3.3-2.3,2.3c-3.4,3.4-6.9,2.8-11.6,1.6s-5-3.9-2.3-7.6c.2-.2.3-.4.5-.5,1.7-1.3,3.4-2.5,4.9-4l3.3-3.2-5.7-3.2c-.6-.3,4.1-5.1,1.2-7s-4.4,5.2-4.8,4.8c-2.7-3.6-3.1-7.2.3-10.4,3.5-3.3,10.6-4.2,14-.8l3.2,7,.6-5.1c0-.8.5-1.5,1.2-2,3.6-2.7,7.6-3.5,10.9,0l.1-.2Z"/>
  <path class="st1" d="M603.8,216.1c0-5,1.3-14.9,7.6-14.9,9.8,1.4,19.8,1.4,29.7,0,6.3-.1,8.5,8.9,8.5,13.9,0,3.8-1.2,4.3-4.5,4.3s-4.5-.2-6.7-.6c-8.6-1.6-17.5-1.5-26.1.4l-.9.2c-6.2,0-7.6,1.7-7.6-3.3h0Z"/>
  <path class="st1" d="M662.1,157.9c3.3,3.5,4.2,10.6.8,14l-3.4,3.4,4.7,4.7c1.6,1.6,2,4,1,6-4.6,9.5-10.9,8.6-15.1,5.4-.6-.5-1-1.2-1.1-2l-.4-3.3-4.2,4.2c-3.2,3.2-8.3,3.1-11.3-.3-2.1-2.3-3.3-4.1-.6-7.6s.3-.4.5-.5c1.7-1.3,3.4-2.5,4.9-4l3.3-3.2-5-3.4c-.6-.3,2.9-5.7.5-6.8s-5,4.5-5.2,4c-1-1.9-2.7-6.4.8-9.6,3.5-3.3,10.6-4.2,14-.8l3.2,7,.6-5.1c0-.8.5-1.5,1.2-2,3.6-2.7,7.6-3.5,10.9,0l-.1-.1Z"/>
  <path class="st1" d="M756.41,80.8c-5.25.3-10-.55-14.24-2.58-6.06-2.83-10.2-8.03-12.42-15.6-1.01-3.13-2.02-8.23-3.03-15.3-.2-1.61-.3-2.78-.3-3.48,0-3.03.61-6.46,1.82-10.3.61-2.52,2.02-4.49,4.24-5.91,2.52-1.51,4.59-2.52,6.21-3.03,6.56-1.92,12.88-2.88,18.93-2.88,3.74,0,7.47.91,11.21,2.73,3.64,1.82,8.63,7.12,15,15.9,1.51,5.25,2.27,9.39,2.27,12.42,0,7.07-2.37,12.98-7.12,17.72-3.74,3.94-8.13,6.97-13.18,9.09-1.31.51-2.88.86-4.7,1.06-.81.2-1.67.25-2.58.15h-2.12,0ZM755.05,74.9c4.24.1,7.85-.48,10.83-1.74,2.98-1.26,5.73-3.41,8.25-6.44,2.52-3.13,4.39-6.61,5.6-10.45.71-2.12,1.06-4.34,1.06-6.66,0-3.43-1.01-6.67-3.03-9.69-.2-.3-1.36-1.92-3.48-4.85-1.21-1.41-2.37-2.55-3.48-3.41s-2.42-1.34-3.94-1.44c-.3,0-.71-.15-1.21-.45-.51-.2-.91-.35-1.21-.45-.3-.1-1.26-.35-2.88-.76-1.62-.4-3.13-.61-4.54-.61-3.94,0-9.24.86-15.91,2.58-4.04,1.21-6.41,3.84-7.12,7.88-.51,2.42-.76,5.2-.76,8.33,0,6.97,1.61,13.78,4.85,20.45,1.21,2.32,3.28,4.24,6.21,5.76,3.03,1.52,6.61,2.17,10.75,1.97v-.02ZM763.53,66.72c-.4,0-1.01-.2-1.82-.61-1.31-.71-2.83-1.92-4.54-3.64-.2-.3-.61-.76-1.21-1.36-.71-.61-2.12-1.36-4.24-2.27-.2,2.02-.41,3.59-.61,4.7-.3,1.11-.81,1.77-1.51,1.97l-.61.15c-.51,0-1.11-.25-1.82-.76-1.21-.91-1.87-2.17-1.97-3.79-.2-5.45-.3-9.54-.3-12.27-.1-.3-.1-.66,0-1.06v-.61c0-3.33,1.19-5.96,3.56-7.88,2.37-1.92,5.07-2.88,8.1-2.88,1.82,0,3.38.3,4.7.91,1.51.61,2.27,1.51,2.27,2.73,0,.2-.1.71-.3,1.51-.61,1.62-1.36,3.08-2.27,4.39-.51.71-2.12,3.03-4.85,6.97l3.18,3.33c3.43,3.64,5.7,6.51,6.82,8.63-.71,1.21-1.57,1.82-2.58,1.82v.02ZM752.17,48.24c1.41-1.21,2.5-2.4,3.26-3.56s1.19-2.55,1.29-4.17c-2.22.51-3.79,1.06-4.7,1.67s-1.36,1.36-1.36,2.27.5,2.17,1.51,3.79Z"/>
</svg>