<?xml version="1.0" encoding="UTF-8"?>
<svg id="Camada_1" xmlns="http://www.w3.org/2000/svg" version="1.1" viewBox="0 0 1000 1000">
  <!-- Generator: Adobe Illustrator 29.2.1, SVG Export Plug-In . SVG Version: 2.1.0 Build 116)  -->
  <defs>
    <style>
      .st0 {
        fill: #fff;
      }

      .st1 {
        fill: #1d1d1b;
      }

      .st2 {
        fill: #4a4d9c;
      }
    </style>
  </defs>
  <g>
    <path class="st0" d="M915.2,500c0,56-11,110.4-32.7,161.6-20.9,49.5-50.8,93.8-89,131.9-38.1,38.1-82.5,68-131.9,89-51.2,21.7-105.6,32.7-161.6,32.7s-110.4-11-161.6-32.7c-49.5-20.9-93.8-50.8-131.9-89-38.1-38.1-68-82.5-89-131.9-21.7-51.2-32.7-105.6-32.7-161.6s11-110.4,32.7-161.6c20.9-49.5,50.8-93.8,89-131.9,38.1-38.1,82.5-68,131.9-89,51.2-21.7,105.6-32.7,161.6-32.7s110.4,11,161.6,32.7c49.5,20.9,93.8,50.8,131.9,89,38.1,38.1,68,82.5,89,131.9,21.7,51.2,32.7,105.6,32.7,161.6Z"/>
    <path class="st1" d="M500,84.8c56,0,110.4,11,161.6,32.7,49.5,20.9,93.8,50.8,131.9,89,38.1,38.1,68,82.5,89,131.9,21.7,51.2,32.7,105.6,32.7,161.6s-11,110.4-32.7,161.6c-20.9,49.5-50.8,93.8-89,131.9-38.1,38.1-82.5,68-131.9,89-51.2,21.7-105.6,32.7-161.6,32.7s-110.4-11-161.6-32.7c-49.5-20.9-93.8-50.8-131.9-89-38.1-38.1-68-82.5-89-131.9-21.7-51.2-32.7-105.6-32.7-161.6s11-110.4,32.7-161.6c20.9-49.5,50.8-93.8,89-131.9,38.1-38.1,82.5-68,131.9-89,51.2-21.7,105.6-32.7,161.6-32.7M500,34.8c-62.7,0-123.7,12.3-181.1,36.6-55.4,23.4-105.1,57-147.8,99.6-42.7,42.7-76.2,92.4-99.6,147.8-24.3,57.4-36.6,118.4-36.6,181.1s12.3,123.7,36.6,181.1c23.4,55.4,57,105.1,99.6,147.8,42.7,42.7,92.4,76.2,147.8,99.6,57.4,24.3,118.4,36.6,181.1,36.6s123.7-12.3,181.1-36.6c55.4-23.4,105.1-57,147.8-99.6,42.7-42.7,76.2-92.4,99.6-147.8,24.3-57.4,36.6-118.4,36.6-181.1s-12.3-123.7-36.6-181.1c-23.4-55.4-57-105.1-99.6-147.8-42.7-42.7-92.4-76.2-147.8-99.6-57.4-24.3-118.4-36.6-181.1-36.6h0Z"/>
  </g>
  <path class="st2" d="M500,154.8c-190.6,0-345.2,154.6-345.2,345.2s154.6,345.2,345.2,345.2,345.2-154.6,345.2-345.2-154.6-345.2-345.2-345.2ZM500,633.5c-71.3,0-129.5-55.9-133.3-126.2-.2-3.9,3-7.3,6.9-7.3h252.7c3.9,0,7.2,3.3,6.9,7.3-3.8,70.4-62,126.2-133.3,126.2h0Z"/>
</svg>