<?xml version="1.0" encoding="UTF-8"?>
<svg id="Camada_1" xmlns="http://www.w3.org/2000/svg" version="1.1" viewBox="0 0 1452.1 600">
  <!-- Generator: Adobe Illustrator 29.2.1, SVG Export Plug-In . SVG Version: 2.1.0 Build 116)  -->
  <defs>
    <style>
      .st0 {
        fill: #fff;
      }
    </style>
  </defs>
  <g>
    <path class="st0" d="M349.1,412.7c-3-3.1-4.5-7.8-4.5-14.2v-186.8c0-6.4,1.5-11.1,4.5-14.2,3-3.1,8.1-4.6,15.3-4.6h39.3c7.5,0,12.7,1.5,15.7,4.5s4.5,7.8,4.5,14.4v186.8c0,6.4-1.5,11.1-4.5,14.2-3,3.1-8.2,4.6-15.7,4.6h-39.3c-7.3,0-12.4-1.5-15.3-4.6Z"/>
    <path class="st0" d="M451.4,412.7c-3-3.1-4.5-7.8-4.5-14.2v-186.8c0-6.4,1.5-11.1,4.5-14.2,3-3.1,8.1-4.6,15.3-4.6h78.9c33,0,57,6.5,72.1,19.6,15.1,13.1,22.6,32.8,22.6,59.2s-2.7,29.2-8.1,40.1c-5.4,10.9-13.7,19.4-24.9,25.6l30.7,65.7c.9,1.8,1.3,3.7,1.3,5.9s-.8,4.4-2.5,5.9c-1.6,1.5-3.8,2.3-6.4,2.3h-55.8c-3.5,0-6.3-.5-8.4-1.5-2.1-1-3.6-2.7-4.5-5.1l-24.4-61.4h-11.2v49.2c0,6.4-1.5,11.1-4.5,14.2-3,3.1-8.2,4.6-15.7,4.6h-39.3c-7.3,0-12.4-1.5-15.3-4.6ZM538.6,294.3c7,0,12.6-1.9,16.7-5.6,4.1-3.7,6.1-9.3,6.1-16.8s-2-13.4-6.1-17.2c-4.1-3.7-9.6-5.6-16.7-5.6h-22.4v45.2h22.4Z"/>
    <path class="st0" d="M702.1,412.7c-3-3.1-4.5-7.8-4.5-14.2v-149.5h-47.5c-7,0-11.8-1.5-14.4-4.5-2.5-3-3.8-7.8-3.8-14.4v-18.5c0-6.6,1.3-11.4,3.8-14.4,2.5-3,7.3-4.5,14.4-4.5h174.2c7,0,11.8,1.5,14.4,4.5,2.5,3,3.8,7.8,3.8,14.4v18.5c0,6.6-1.3,11.4-3.8,14.4-2.5,3-7.3,4.5-14.4,4.5h-47.5v149.5c0,6.4-1.5,11.1-4.5,14.2-3,3.1-8.2,4.6-15.7,4.6h-39.3c-7.3,0-12.4-1.5-15.3-4.6Z"/>
    <path class="st0" d="M856.9,412.7c-3-3.1-4.5-7.8-4.5-14.2v-186.8c0-6.4,1.5-11.1,4.5-14.2,3-3.1,8.1-4.6,15.3-4.6h39.3c7.5,0,12.7,1.5,15.7,4.5,3,3,4.5,7.8,4.5,14.4v186.8c0,6.4-1.5,11.1-4.5,14.2-3,3.1-8.2,4.6-15.7,4.6h-39.3c-7.3,0-12.4-1.5-15.3-4.6Z"/>
    <path class="st0" d="M959.2,412.7c-3-3.1-4.5-7.8-4.5-14.2v-186.8c0-6.4,1.5-11.1,4.5-14.2,3-3.1,8.1-4.6,15.3-4.6h39.3c7.5,0,12.7,1.5,15.7,4.5,3,3,4.5,7.8,4.5,14.4v149.5h76.9c7,0,11.8,1.5,14.4,4.5,2.5,3,3.8,7.8,3.8,14.4v18.5c0,6.6-1.3,11.4-3.8,14.4-2.5,3-7.3,4.5-14.4,4.5h-136.3c-7.3,0-12.4-1.5-15.3-4.6Z"/>
    <circle class="st0" cx="890.9" cy="133.4" r="42.8"/>
    <g>
      <path class="st0" d="M827.5,436.9h-139c-2.3,0-3.4,2.9-1.6,4.4,9,7.4,14.7,18.6,14.7,31.1s-6.5,25.1-16.4,32.5-.9,4.5,1.5,4.5h141.1c7.3,0,12.4-1.5,15.3-4.6,3-3.1,4.5-7.8,4.5-14.2v-33.7c0-11-9-20-20-20Z"/>
      <g>
        <path class="st0" d="M634.2,436.9h-146.7c-2.3,0-3.4,2.9-1.6,4.4,9,7.4,14.7,18.6,14.7,31.1s-6.5,25.1-16.4,32.5-.9,4.5,1.5,4.5h150.4c2.4,0,3.4-3.1,1.5-4.5-10-7.3-16.4-19.1-16.4-32.5s5.7-23.7,14.7-31.1c1.8-1.5.7-4.4-1.6-4.4Z"/>
        <path class="st0" d="M420.1,472.4c0-12.5,5.7-23.7,14.7-31.1s.7-4.4-1.6-4.4h-106.6c-2.8,0-5-2.2-5-5v-220.4c0-6.4-1.5-11.1-4.5-14s-8.2-4.5-15.7-4.5h-37.9c-4.8,0-8.7.6-11.5,1.8-2.9,1.2-5.1,3.6-6.6,7.1l-38.6,96.7-38.6-96.7c-1.5-3.5-3.7-5.9-6.6-7.1-2.9-1.2-6.7-1.8-11.5-1.8h-37.9c-7.5,0-12.7,1.5-15.7,4.5s-4.5,7.6-4.5,14v187.1c0,6.4,1.5,11.1,4.5,14.2,3,3.1,8.1,4.6,15.3,4.6h31.7c7.5,0,12.7-1.5,15.7-4.6,3-3.1,4.5-7.8,4.5-14.2v-90.1l19.5,44.9c2.6,6.4,5.5,10.9,8.6,13.7,3.1,2.8,8.1,4.1,15.2,4.1s12.1-1.4,15.2-4.1c3.1-2.7,5.9-7.3,8.6-13.7l19.5-44.9v182.1c0,6.4,1.5,11.1,4.6,14.2,3.1,3.1,8.2,4.6,15.5,4.6h165c2.4,0,3.4-3.1,1.5-4.5-10-7.3-16.4-19.1-16.4-32.5Z"/>
      </g>
    </g>
  </g>
  <path class="st0" d="M1235.8,175.9c-68.7,0-124.4,55.7-124.4,124.4s55.7,124.4,124.4,124.4,124.4-55.7,124.4-124.4-55.7-124.4-124.4-124.4ZM1235.8,348.4c-25.7,0-46.7-20.1-48-45.5,0-1.4,1.1-2.6,2.5-2.6h91.1c1.4,0,2.6,1.2,2.5,2.6-1.4,25.4-22.4,45.5-48,45.5Z"/>
</svg>